<?xml version="1.0" encoding="utf-8"?>
<!-- Generator: Adobe Illustrator 24.3.0, SVG Export Plug-In . SVG Version: 6.00 Build 0)  -->
<svg version="1.1" xmlns="http://www.w3.org/2000/svg" xmlns:xlink="http://www.w3.org/1999/xlink" x="0px" y="0px"
	 viewBox="0 0 52 52" style="enable-background:new 0 0 52 52;" xml:space="preserve" height="50px" width="50px">
<style type="text/css">
	.st0{fill:#FFFFFF;}
</style>
<g id="Layer_1_copy">
	<g transform="translate(1.4065934065934016 1.4065934065934016) scale(2.81 2.81)">
		<path d="M-0.1,17.9V5.4h4.4v12.4H-0.1z M2.1,4.5c-1.4,0-2.5-1.1-2.5-2.5c0-1.4,1.1-2.5,2.5-2.5s2.5,1.1,2.5,2.5
			C4.5,3.4,3.4,4.5,2.1,4.5z"/>
		<path d="M0.2,5.8h3.6v11.7H0.2V5.8z M2.1,0c1.2,0,2.1,0.9,2.1,2.1c0,1.2-0.9,2.1-2.1,2.1C0.9,4.2,0,3.2,0,2.1C0,0.9,0.9,0,2.1,0"
			/>
		<path d="M13.5,17.9v-6.1c0-1.6-0.1-2.8-1.5-2.8c-1.3,0-1.8,0.7-1.8,2.7v6.2H5.8V5.4H10v1c0.7-0.7,1.7-1.3,3.1-1.3
			c4.2,0,4.7,3,4.7,5.9v6.8H13.5z"/>
		<path d="M6.2,5.8h3.5v1.6h0c0.5-0.9,1.7-1.9,3.4-1.9c3.7,0,4.4,2.4,4.4,5.6v6.4h-3.6v-5.7c0-1.4,0-3.1-1.9-3.1
			c-1.9,0-2.2,1.5-2.2,3v5.8H6.2V5.8z"/>
	</g>
</g>
<g id="Layer_1">
	<g transform="translate(1.4065934065934016 1.4065934065934016) scale(2.81 2.81)">
		<path class="st0" d="M0.2,5.8h3.6v11.7H0.2V5.8z M2.1,0c1.2,0,2.1,0.9,2.1,2.1c0,1.2-0.9,2.1-2.1,2.1C0.9,4.2,0,3.2,0,2.1
			C0,0.9,0.9,0,2.1,0"/>
		<path class="st0" d="M6.2,5.8h3.5v1.6h0c0.5-0.9,1.7-1.9,3.4-1.9c3.7,0,4.4,2.4,4.4,5.6v6.4h-3.6v-5.7c0-1.4,0-3.1-1.9-3.1
			c-1.9,0-2.2,1.5-2.2,3v5.8H6.2V5.8z"/>
	</g>
</g>
</svg>
