<?xml version="1.0" encoding="utf-8"?>
<!-- Generator: Adobe Illustrator 24.3.0, SVG Export Plug-In . SVG Version: 6.00 Build 0)  -->
<svg version="1.1" xmlns="http://www.w3.org/2000/svg" xmlns:xlink="http://www.w3.org/1999/xlink" x="0px" y="0px"
	 viewBox="0 0 44.7 52.4" style="enable-background:new 0 0 44.7 52.4;" xml:space="preserve" height="50px" width="50px">
<style type="text/css">
	.st0{display:none;}
	.st1{display:inline;fill:#FFFFFF;}
	.st2{fill:#FFFFFF;}
</style>
<g id="Layer_1" class="st0">
	<path class="st1" d="M36.5,47V33.7H41v17.8H0.8V33.7h4.4V47H36.5z M9.7,42.6h22.4v-4.5H9.7C9.7,38.1,9.7,42.6,9.7,42.6z M10.2,32.5
		L32.1,37l0.9-4.3l-21.8-4.6C11.2,28.2,10.2,32.5,10.2,32.5z M13.1,21.9l20.2,9.4l1.9-4.1L15,17.9L13.1,21.9
		C13.1,21.9,13.1,21.9,13.1,21.9z M18.7,12l17.1,14.3l2.8-3.4L21.6,8.6L18.7,12C18.8,12,18.7,12,18.7,12z M29.8,1.5l-3.6,2.7
		l13.3,17.9l3.6-2.7L29.8,1.5C29.8,1.5,29.8,1.5,29.8,1.5z"/>
</g>
<g id="Layer_2">
	<path d="M0,52.4V32.6h6.4v13.3h29.3V32.6h6.4v19.8H0z M8.9,43.5V37h18.9L9.2,33.2l1.4-6.3l20.1,4.2l-18.4-8.6v-0.9l0.1-0.2l2.3-4.9
		l18.6,8.7l-15-12.5l0.3-1l-0.4-0.4l3.5-4.1l15.1,12.6L24.9,3.9L30.2,0l14.5,19.5L40,23.1l-3.5,4.1l-2.2,4.7l0.1,0l-1.1,5.2v6.4H8.9
		z"/>
	<path class="st2" d="M36.7,46.9V33.6h4.4v17.8H1V33.6h4.4v13.3H36.7z M9.9,42.5h22.4V38H9.9C9.9,38,9.9,42.5,9.9,42.5z M10.4,32.4
		L32.3,37l0.9-4.3l-21.8-4.6C11.4,28.1,10.4,32.4,10.4,32.4z M13.3,21.9l20.2,9.4l1.9-4.1l-20.2-9.4L13.3,21.9
		C13.3,21.8,13.3,21.9,13.3,21.9z M18.9,11.9L36,26.2l2.8-3.4L21.8,8.5L18.9,11.9C18.9,11.9,18.9,11.9,18.9,11.9z M30,1.4l-3.6,2.7
		L39.7,22l3.6-2.7L30,1.4C30,1.4,30,1.4,30,1.4z"/>
	<rect x="18.1" y="11.5" transform="matrix(0.7604 0.6495 -0.6495 0.7604 11.9051 -9.2511)" width="0.8" height="0.1"/>
	<rect x="17.7" y="11.7" transform="matrix(0.7726 0.6349 -0.6349 0.7726 11.9331 -8.9626)" width="1.6" height="1"/>
</g>
</svg>
