<?xml version="1.0" encoding="utf-8"?>
<!-- Generator: Adobe Illustrator 24.3.0, SVG Export Plug-In . SVG Version: 6.00 Build 0)  -->
<svg version="1.1" xmlns="http://www.w3.org/2000/svg" xmlns:xlink="http://www.w3.org/1999/xlink" x="0px" y="0px"
	 viewBox="0 0 50 50" style="enable-background:new 0 0 50 50;" xml:space="preserve" height="52px" width="51px" >
<style type="text/css">
	.st0{display:none;}
	.st1{display:inline;fill:#FFFFFF;}
	.st2{fill:#FFFFFF;}
</style>
<g id="Layer_1" class="st0">
	<path class="st1" d="M39.6,45.6V32.2H44V50H3.8V32.2h4.4v13.3H39.6z M12.7,41.1h22.4v-4.5H12.7C12.7,36.7,12.7,41.1,12.7,41.1z
		 M13.3,31l21.8,4.6l0.9-4.3l-21.8-4.6C14.2,26.7,13.3,31,13.3,31z M16.1,20.5l20.2,9.4l1.9-4.1L18,16.4L16.1,20.5
		C16.1,20.4,16.1,20.5,16.1,20.5z M21.8,10.5l17.1,14.3l2.8-3.4L24.6,7.1L21.8,10.5C21.8,10.5,21.8,10.5,21.8,10.5z M32.8,0
		l-3.6,2.7l13.3,17.9l3.6-2.7L32.8,0C32.8,0,32.8,0,32.8,0z"/>
</g>
<g id="Layer_2">
	<path d="M3,50.9V31.1h6.4v13.3h29.3V31.1h6.4v19.8H3z M11.9,42v-6.5h18.9l-18.6-3.9l1.4-6.3l20.1,4.2L15.3,21v-0.9l0.1-0.2l2.3-4.9
		l18.6,8.7l-15-12.5l0.3-1l-0.4-0.4l3.5-4.1l15.1,12.6L28,2.4l5.2-3.9L47.7,18L43,21.6l-3.5,4.1l-2.2,4.7l0.1,0l-1.1,5.2V42H11.9z"
		/>
	<path class="st2" d="M39.7,45.5V32.1h4.4v17.8H4V32.1h4.4v13.3H39.7z M12.9,41h22.4v-4.5H12.9C12.9,36.6,12.9,41,12.9,41z
		 M13.5,30.9l21.8,4.6l0.9-4.3l-21.8-4.6C14.4,26.6,13.5,30.9,13.5,30.9z M16.3,20.4l20.2,9.4l1.9-4.1l-20.2-9.4L16.3,20.4
		C16.3,20.4,16.3,20.4,16.3,20.4z M21.9,10.4l17.1,14.3l2.8-3.4L24.8,7L21.9,10.4C22,10.4,21.9,10.4,21.9,10.4z M33-0.1l-3.6,2.7
		l13.3,17.9l3.6-2.7L33-0.1C33-0.1,33-0.1,33-0.1z"/>
	<rect x="21.1" y="10" transform="matrix(0.7604 0.6495 -0.6495 0.7604 11.67 -11.5709)" width="0.8" height="0.1"/>
	<rect x="20.7" y="10.2" transform="matrix(0.7726 0.6349 -0.6349 0.7726 11.6826 -11.2204)" width="1.6" height="1"/>
</g>
</svg>
